<svg xmlns="http://www.w3.org/2000/svg" viewBox="0 0 256 256" width="512" height="512" role="img" aria-labelledby="title desc">
  <title id="title">Bugetto App Icon</title>
  <desc id="desc">Rounded gradient square with a stylized B in bitcoin style and small growth bars.</desc>
  <defs>
    <linearGradient id="bg" x1="0" y1="0" x2="1" y2="1">
      <stop offset="0%" stop-color="#0ea5e9"/>
      <stop offset="100%" stop-color="#22c55e"/>
    </linearGradient>
    <linearGradient id="bGradOrange" x1="0" y1="0" x2="1" y2="1">
      <stop offset="0%" stop-color="#f97316"/>
      <stop offset="100%" stop-color="#ea580c"/>
    </linearGradient>
  </defs>

  <!-- background -->
  <rect x="8" y="8" width="240" height="240" rx="56" fill="url(#bg)"/>

  <!-- stylized "B" inspired by Bitcoin with orange gradient and vertical strokes -->
  <g transform="translate(20,0)">
    <!-- vertical stem -->
    <rect x="50" y="52" width="28" height="152" rx="10" fill="url(#bGradOrange)" stroke="#0f172a" stroke-width="2"/>
    <!-- top lobe -->
    <path d="M78 68 H126 a26 26 0 0 1 0 52 H78 Z" fill="url(#bGradOrange)" stroke="#0f172a" stroke-width="2"/>
    <!-- bottom lobe -->
    <path d="M78 128 H136 a30 30 0 0 1 0 60 H78 Z" fill="url(#bGradOrange)" stroke="#0f172a" stroke-width="2"/>
    <!-- vertical strokes like Bitcoin B -->
    <rect x="70" y="52" width="6" height="152" fill="#fcd34d" opacity="0.9"/>
    <rect x="98" y="52" width="6" height="152" fill="#fcd34d" opacity="0.9"/>
  </g>

  <!-- growth bars -->
  <g opacity="0.95">
    <rect x="170" y="160" width="12" height="28" rx="6" fill="#0ea5e9" stroke="#0f172a" stroke-width="1"/>
    <rect x="188" y="148" width="12" height="40" rx="6" fill="#14b8a6" stroke="#0f172a" stroke-width="1"/>
    <rect x="206" y="128" width="12" height="60" rx="6" fill="#22c55e" stroke="#0f172a" stroke-width="1"/>
  </g>
</svg>
